<?xml version="1.0" encoding="UTF-8" standalone="no"?>
<!-- Generator: Adobe Illustrator 21.0.0, SVG Export Plug-In . SVG Version: 6.00 Build 0)  -->

<svg
   version="1.1"
   id="Ebene_1"
   x="0px"
   y="0px"
   viewBox="0 0 449.99999 450.70003"
   xml:space="preserve"
   sodipodi:docname="logo.svg"
   width="450"
   height="450.70001"
   inkscape:version="1.1 (c68e22c387, 2021-05-23)"
   xmlns:inkscape="http://www.inkscape.org/namespaces/inkscape"
   xmlns:sodipodi="http://sodipodi.sourceforge.net/DTD/sodipodi-0.dtd"
   xmlns="http://www.w3.org/2000/svg"
   xmlns:svg="http://www.w3.org/2000/svg"><defs
   id="defs53"><inkscape:perspective
     sodipodi:type="inkscape:persp3d"
     inkscape:vp_x="0 : 224.02502 : 1"
     inkscape:vp_y="0 : 1000 : 0"
     inkscape:vp_z="449.99999 : 224.02502 : 1"
     inkscape:persp3d-origin="225 : 148.46668 : 1"
     id="perspective221" /></defs><sodipodi:namedview
   id="namedview51"
   pagecolor="#ffffff"
   bordercolor="#666666"
   borderopacity="1.0"
   inkscape:pageshadow="2"
   inkscape:pageopacity="0.0"
   inkscape:pagecheckerboard="0"
   showgrid="false"
   inkscape:zoom="1.9637158"
   inkscape:cx="223.81039"
   inkscape:cy="226.86583"
   inkscape:window-width="2560"
   inkscape:window-height="1377"
   inkscape:window-x="-8"
   inkscape:window-y="-8"
   inkscape:window-maximized="1"
   inkscape:current-layer="g48" />
<style
   type="text/css"
   id="style32">
	.st0{fill:#FDD755;}
	.st1{fill:#FDD756;}
	.st2{fill:#FBD757;}
	.st3{fill:#D0BC77;}
	.st4{fill:#E6CC55;}
</style>
<g
   id="g48"
   transform="translate(-197.1,-71)">
	<path
   class="st0"
   d="m 486.7,214.7 c 26.8,-0.2 53.7,-2.3 80.2,0 21.2,1.8 39.5,24.9 40.3,46.6 0.9,24.6 -6.1,43.9 -28.2,56.7 13.3,21.9 26.1,43.2 40,66.2 -15.3,0 -29.2,0.4 -43,-0.3 -3.2,-0.2 -7,-4 -8.9,-7.2 -8.7,-14 -16.6,-28.6 -25.5,-42.5 -2.5,-3.8 -7.6,-6 -11.5,-8.9 -1,0.9 -2,1.7 -3,2.6 0,18.2 0,36.4 0,56.1 -14.9,0 -28.8,0 -42.8,0 0,-51.1 -0.1,-102.3 0.1,-153.4 0.1,-5.4 1.5,-10.7 2.3,-15.9 z m 40.2,73.6 c 3.9,1 7.1,2.6 10.2,2.4 9.5,-0.5 21.2,0.1 24.4,-10.6 2.5,-8.2 1.5,-18.6 -1.2,-26.9 -2.4,-7.4 -19.9,-11.6 -27.9,-8.4 -2.4,1 -5.1,4.6 -5.2,7.1 -0.6,12 -0.3,24 -0.3,36.4 z"
   id="path34" />
	<path
   class="st1"
   d="m 197.1,521.7 c 7.4,-15.6 14.5,-31.3 22.1,-46.8 8.2,-16.8 17.4,-33 24.9,-50.1 4.7,-10.8 11.1,-15.4 22.7,-13.6 3.2,0.5 6.6,0.1 12.1,0.1 -14.4,29.4 -28.2,57.5 -42.7,87 124.3,0 247.1,0 372.3,0 -14.4,-29.1 -28.1,-56.9 -42,-85 22.8,-5.2 25.7,-4 34.8,14.6 15.3,31.2 30.5,62.4 45.8,93.6 -150,0 -300,0.1 -450,0.2 z"
   id="path36" />
	<path
   class="st0"
   d="m 281.9,345.9 c 21.3,0 41.1,0 61.8,0 0,13.3 0,25 0,37.5 -39.3,0 -78.2,0 -118.2,0 -1.4,-12.1 -2.9,-23.7 4.2,-35.5 17.7,-29.4 34.6,-59.4 51.8,-89.1 1,-1.7 1.8,-3.4 3.5,-6.6 -20.4,0 -39.3,0 -59.4,0 0,-12.8 0,-24.5 0,-37.2 38,0 76.1,0 115.9,0 -0.4,11.2 2.9,22.2 -4,33.9 -18.9,31.2 -36.3,63 -55.6,97 z"
   id="path38" />
	<path
   class="st1"
   d="m 356.8,343.9 c 11.1,1.6 20.3,3.8 29.7,4.2 9.4,0.4 19.2,0.7 28.1,-1.9 11.7,-3.3 12.8,-13.7 2.4,-20 -7.2,-4.4 -15.9,-6.6 -24,-9.5 -27.1,-9.5 -40.9,-26.2 -41.1,-49.8 -0.2,-28.6 12.1,-47 40.1,-53.1 21.7,-4.7 44.2,-3.9 66.5,0.6 0,13 0,24.8 0,34.9 -16.4,0 -32,-0.8 -47.4,0.5 -4.8,0.4 -10.5,5.9 -13,10.6 -1.1,2 4.1,9.4 7.9,11.6 7.8,4.3 16.8,6.4 25.1,9.9 18,7.6 33.2,17.3 37.1,39.2 5.5,30.7 -13.9,58.5 -44.6,63.5 -20,3.2 -39.3,2.7 -58.8,-2.3 -6.3,-1.6 -8.1,-4.5 -8,-10.3 0.2,-8.8 0,-17.5 0,-28.1 z"
   id="path40" />
	<path
   class="st2"
   d="m 366.3,182.8 c 18.4,-36.7 36.5,-73 55.9,-111.8 19.2,38.3 37.4,74.5 55.8,111.2 -23.6,5.5 -26.2,4.3 -35.6,-14.3 -6.1,-12.2 -12.2,-24.4 -18.4,-36.5 -0.3,-0.6 -1.2,-0.9 -3,-2.1 -6.4,12.5 -12.7,24.9 -19,37.3 -10.2,20.4 -10.2,20.4 -35.7,16.2 z"
   id="path42" />
	
	
</g>
</svg>
